<svg xmlns="http://www.w3.org/2000/svg" viewBox="0 0 787.32 312"><defs><style>.cls-1{fill:#fff;}.cls-2{fill:red;}</style></defs><g id="Layer_2" data-name="Layer 2"><g id="Layer_1-2" data-name="Layer 1"><rect class="cls-1" width="787.32" height="312"/><path d="M357.33,144.63q-4.26-3.6-11.45-3.6a21.1,21.1,0,0,0-10.26,2.27,18.23,18.23,0,0,0-6.59,6,25.3,25.3,0,0,0-3.53,8.59,46.82,46.82,0,0,0-1.06,10.05,38.08,38.08,0,0,0,1.13,9.33,24.77,24.77,0,0,0,3.53,8.05,17.81,17.81,0,0,0,6.26,5.67,18.72,18.72,0,0,0,9.19,2.13q8.38,0,13.12-4.4t5.79-12.38h11.59q-1.87,12.78-9.53,19.71T344.68,203a35.82,35.82,0,0,1-13.92-2.53,27,27,0,0,1-10.12-7.19,31.12,31.12,0,0,1-6.13-11.12,46.64,46.64,0,0,1-2.06-14.19,50.67,50.67,0,0,1,2-14.45,33.4,33.4,0,0,1,6.06-11.72,28.43,28.43,0,0,1,10.19-7.85A33.28,33.28,0,0,1,345,131a41.64,41.64,0,0,1,11,1.4,26.79,26.79,0,0,1,9.06,4.33,23.67,23.67,0,0,1,6.46,7.39,27.33,27.33,0,0,1,3.2,10.59H362.93A17.28,17.28,0,0,0,357.33,144.63Z"/><path d="M386.1,153a32.16,32.16,0,0,1,6.39-11.45A30.08,30.08,0,0,1,403,133.84a38.53,38.53,0,0,1,28.84,0,30.27,30.27,0,0,1,10.45,7.66A32.16,32.16,0,0,1,448.69,153a45.9,45.9,0,0,1,2.13,14.19,45.2,45.2,0,0,1-2.13,14.11,32.24,32.24,0,0,1-6.39,11.39,29.6,29.6,0,0,1-10.45,7.59,39.45,39.45,0,0,1-28.84,0,29.42,29.42,0,0,1-10.52-7.59,32.24,32.24,0,0,1-6.39-11.39A45.2,45.2,0,0,1,384,167.14,45.9,45.9,0,0,1,386.1,153Zm11.52,25.31a23.25,23.25,0,0,0,4.59,8.12,19.87,19.87,0,0,0,6.86,5,20.79,20.79,0,0,0,16.65,0,19.87,19.87,0,0,0,6.86-5,23.25,23.25,0,0,0,4.59-8.12,37.89,37.89,0,0,0,0-22.25,24.06,24.06,0,0,0-4.59-8.19,19.81,19.81,0,0,0-6.86-5.06,20.9,20.9,0,0,0-16.65,0,19.81,19.81,0,0,0-6.86,5.06,24.06,24.06,0,0,0-4.59,8.19,37.89,37.89,0,0,0,0,22.25Z"/><path d="M514.35,201.5v-9.33h-.27a16.64,16.64,0,0,1-8.79,8.26A33.48,33.48,0,0,1,492.11,203,31.1,31.1,0,0,1,478.19,200a28.46,28.46,0,0,1-9.85-7.86,34.14,34.14,0,0,1-5.93-11.45,47.14,47.14,0,0,1-2-13.85A48.85,48.85,0,0,1,462.34,153a32.65,32.65,0,0,1,5.86-11.39,28.34,28.34,0,0,1,9.86-7.72A31.3,31.3,0,0,1,491.84,131a33.07,33.07,0,0,1,5.73.54,29.15,29.15,0,0,1,6.13,1.79,26.64,26.64,0,0,1,5.79,3.33,18.27,18.27,0,0,1,4.59,5.13h.27V106.4h11.32v95.1Zm-40.69-24.44a25.37,25.37,0,0,0,3.87,8.19,18.93,18.93,0,0,0,6.65,5.73,20.26,20.26,0,0,0,9.53,2.13,18.71,18.71,0,0,0,16.25-8.2,25,25,0,0,0,3.66-8.32,40.18,40.18,0,0,0,1.13-9.45,39.6,39.6,0,0,0-1.2-9.79,24.33,24.33,0,0,0-3.79-8.33,19.52,19.52,0,0,0-6.73-5.79,20.94,20.94,0,0,0-10-2.2,19.41,19.41,0,0,0-9.72,2.27,17.94,17.94,0,0,0-6.39,6,26.11,26.11,0,0,0-3.47,8.52,45.34,45.34,0,0,0-1.06,9.86A35.42,35.42,0,0,0,473.66,177.06Z"/><path d="M604.11,201.21Q601.18,203,596,203a9.74,9.74,0,0,1-7-2.46q-2.6-2.46-2.6-8.06a27.12,27.12,0,0,1-10.85,8.06,37.63,37.63,0,0,1-22.25,1.4,20.57,20.57,0,0,1-7.25-3.33,16,16,0,0,1-4.87-5.93,20.05,20.05,0,0,1-1.79-8.86,20.28,20.28,0,0,1,2-9.59,17.6,17.6,0,0,1,5.27-6.06,23.94,23.94,0,0,1,7.45-3.52q4.2-1.2,8.59-2,4.66-.93,8.86-1.4a48.78,48.78,0,0,0,7.39-1.33,12.33,12.33,0,0,0,5.06-2.53,6.19,6.19,0,0,0,1.87-4.86,11.34,11.34,0,0,0-1.4-6,9.54,9.54,0,0,0-3.6-3.46,14.68,14.68,0,0,0-4.92-1.6,36.75,36.75,0,0,0-5.4-.4,24,24,0,0,0-12,2.73q-4.78,2.73-5.19,10.32H542.05a24.57,24.57,0,0,1,2.66-10.78,20.19,20.19,0,0,1,6.4-7.13,26.78,26.78,0,0,1,9.12-3.93,48.14,48.14,0,0,1,11-1.2,65,65,0,0,1,9.25.67,24.24,24.24,0,0,1,8.33,2.72,16,16,0,0,1,6,5.78,18.47,18.47,0,0,1,2.26,9.7v35.36a26.34,26.34,0,0,0,.47,5.84c.31,1.24,1.35,1.86,3.13,1.86a11.26,11.26,0,0,0,3.46-.66ZM585.73,165.8a13.88,13.88,0,0,1-5.59,2.33q-3.46.74-7.26,1.2c-2.53.32-5.08.67-7.66,1.07a28.07,28.07,0,0,0-6.92,1.93,12.61,12.61,0,0,0-5,3.8,10.66,10.66,0,0,0-1.93,6.72,9.15,9.15,0,0,0,1.14,4.73,9.36,9.36,0,0,0,2.93,3.13,12.06,12.06,0,0,0,4.19,1.73,23,23,0,0,0,5.06.53,26.83,26.83,0,0,0,9.59-1.53,20.31,20.31,0,0,0,6.53-3.86,15.31,15.31,0,0,0,3.73-5.06,12.94,12.94,0,0,0,1.19-5.13Z"/><path d="M626.35,106.4V142h.27a16.93,16.93,0,0,1,8.79-8.32,32.81,32.81,0,0,1,13.18-2.6A31.1,31.1,0,0,1,662.51,134a28.43,28.43,0,0,1,9.86,7.93,35.14,35.14,0,0,1,5.92,11.52,46.81,46.81,0,0,1,2,13.85,48.49,48.49,0,0,1-1.93,13.85,32.65,32.65,0,0,1-5.86,11.39,27.65,27.65,0,0,1-9.85,7.65,31.94,31.94,0,0,1-13.79,2.8,34.56,34.56,0,0,1-5.66-.53A31.57,31.57,0,0,1,637,200.7a24,24,0,0,1-5.8-3.27,18.09,18.09,0,0,1-4.59-5.12h-.27v9.19H615V106.4ZM667,157.08a25.35,25.35,0,0,0-3.86-8.19,18.87,18.87,0,0,0-6.66-5.73A20.22,20.22,0,0,0,647,141a18.7,18.7,0,0,0-16.25,8.19,24.71,24.71,0,0,0-3.66,8.33,40.14,40.14,0,0,0,.06,19.24,24.21,24.21,0,0,0,3.8,8.32,19.42,19.42,0,0,0,6.72,5.8,21.06,21.06,0,0,0,10,2.2,19.35,19.35,0,0,0,9.79-2.27,18.18,18.18,0,0,0,6.33-6,26.32,26.32,0,0,0,3.46-8.52,45.34,45.34,0,0,0,1.06-9.86A35.31,35.31,0,0,0,667,157.08Z"/><path d="M705.59,106.4v95.1H694.27V106.4Z"/><path class="cls-2" d="M148.92,149.94v0L94.41,181.57a1.49,1.49,0,0,1-2.24-1.29V121.42A6.34,6.34,0,0,1,95.3,116L148.49,84.9a6.31,6.31,0,0,0,3.13-5.46h0A6.32,6.32,0,0,0,142.11,74L82.66,108.71a6.32,6.32,0,0,0-3.14,5.46v79.61A6.32,6.32,0,0,0,89,199.25l57.71-33.4a1.46,1.46,0,0,1,2.2,1.27v66.13a6.32,6.32,0,0,0,9.48,5.48l69.4-40a6.32,6.32,0,0,0,3.16-5.47V113.33a6.32,6.32,0,0,0-9.49-5.47Zm69.4-23.07v59a6.34,6.34,0,0,1-3.16,5.48L163.8,221a1.49,1.49,0,0,1-2.23-1.29V160.9a6.31,6.31,0,0,1,3.14-5.47l51.39-29.84A1.48,1.48,0,0,1,218.32,126.87Z"/></g></g></svg>