<svg xmlns="http://www.w3.org/2000/svg" viewBox="0 0 626.07 166.48"><defs><style>.cls-1{fill:red;}</style></defs><g id="Layer_2" data-name="Layer 2"><g id="Layer_1-2" data-name="Layer 1"><path d="M277.81,71.52q-4.26-3.6-11.45-3.6a21.1,21.1,0,0,0-10.26,2.27,18.32,18.32,0,0,0-6.59,6A25.1,25.1,0,0,0,246,84.77a46.84,46.84,0,0,0-1.07,10.06,38.06,38.06,0,0,0,1.14,9.32,24.92,24.92,0,0,0,3.53,8.06,17.84,17.84,0,0,0,6.25,5.66A18.77,18.77,0,0,0,265,120q8.4,0,13.12-4.4t5.8-12.38h11.58Q293.66,116,286,122.93t-20.84,6.92a35.82,35.82,0,0,1-13.92-2.53,26.89,26.89,0,0,1-10.12-7.19A31.12,31.12,0,0,1,235,109a46.27,46.27,0,0,1-2.06-14.18,50.57,50.57,0,0,1,2-14.45A33.47,33.47,0,0,1,241,68.66a28.51,28.51,0,0,1,10.19-7.86,33.35,33.35,0,0,1,14.25-2.86,41.72,41.72,0,0,1,11,1.39,27,27,0,0,1,9.06,4.33,23.78,23.78,0,0,1,6.46,7.39,27.32,27.32,0,0,1,3.19,10.59H283.4A17.27,17.27,0,0,0,277.81,71.52Z"/><path d="M306.58,79.84A32,32,0,0,1,313,68.39a30.12,30.12,0,0,1,10.52-7.66,38.63,38.63,0,0,1,28.83,0,30.44,30.44,0,0,1,10.46,7.66,32.16,32.16,0,0,1,6.39,11.45A45.94,45.94,0,0,1,371.3,94a45.16,45.16,0,0,1-2.13,14.11,32.15,32.15,0,0,1-6.39,11.39,29.64,29.64,0,0,1-10.46,7.59,39.42,39.42,0,0,1-28.83,0A29.34,29.34,0,0,1,313,119.53a32,32,0,0,1-6.39-11.39A44.87,44.87,0,0,1,304.44,94,45.65,45.65,0,0,1,306.58,79.84Zm11.51,25.31a23.27,23.27,0,0,0,4.6,8.12,19.93,19.93,0,0,0,6.86,5,20.9,20.9,0,0,0,16.65,0,20.12,20.12,0,0,0,6.86-5,23.25,23.25,0,0,0,4.59-8.12A34.25,34.25,0,0,0,359.32,94a34.21,34.21,0,0,0-1.67-11.12,24.06,24.06,0,0,0-4.59-8.19,19.66,19.66,0,0,0-6.86-5.06,20.79,20.79,0,0,0-16.65,0,19.48,19.48,0,0,0-6.86,5.06,24.07,24.07,0,0,0-4.6,8.19A34.22,34.22,0,0,0,316.43,94,34.26,34.26,0,0,0,318.09,105.15Z"/><path d="M434.83,128.39v-9.33h-.27a16.6,16.6,0,0,1-8.79,8.26,33.48,33.48,0,0,1-13.18,2.53,31.1,31.1,0,0,1-13.92-2.93,28.59,28.59,0,0,1-9.86-7.86,34.12,34.12,0,0,1-5.92-11.45,47.14,47.14,0,0,1-2-13.85,48.49,48.49,0,0,1,1.93-13.85,32.65,32.65,0,0,1,5.86-11.39,28.25,28.25,0,0,1,9.86-7.72,31.27,31.27,0,0,1,13.78-2.86,33.19,33.19,0,0,1,5.73.53,28.36,28.36,0,0,1,6.12,1.8,26.26,26.26,0,0,1,5.8,3.32,18.42,18.42,0,0,1,4.59,5.13h.27V33.3h11.32v95.09ZM394.14,104a25.35,25.35,0,0,0,3.86,8.19,18.87,18.87,0,0,0,6.66,5.73,20.22,20.22,0,0,0,9.52,2.13,18.7,18.7,0,0,0,16.25-8.19,24.83,24.83,0,0,0,3.67-8.33A40.11,40.11,0,0,0,435.23,94a39.6,39.6,0,0,0-1.2-9.79,24.35,24.35,0,0,0-3.8-8.33,19.5,19.5,0,0,0-6.72-5.79,21.12,21.12,0,0,0-10-2.2,19.41,19.41,0,0,0-9.72,2.27,18.06,18.06,0,0,0-6.4,6,26.1,26.1,0,0,0-3.46,8.52,45.41,45.41,0,0,0-1.07,9.86A35.32,35.32,0,0,0,394.14,104Z"/><path d="M524.59,128.1q-2.93,1.76-8.12,1.75a9.78,9.78,0,0,1-7-2.46q-2.6-2.46-2.59-8.06A27.08,27.08,0,0,1,496,127.39a37.59,37.59,0,0,1-22.24,1.4,20.54,20.54,0,0,1-7.26-3.33,16,16,0,0,1-4.86-5.93,19.89,19.89,0,0,1-1.8-8.85,20.22,20.22,0,0,1,2-9.59A17.39,17.39,0,0,1,467.12,95a24,24,0,0,1,7.46-3.53q4.2-1.2,8.59-2,4.66-.93,8.86-1.4a49,49,0,0,0,7.39-1.33,12.4,12.4,0,0,0,5.06-2.53,6.18,6.18,0,0,0,1.86-4.86,11.34,11.34,0,0,0-1.39-6,9.77,9.77,0,0,0-3.6-3.46,14.73,14.73,0,0,0-4.93-1.6,38.14,38.14,0,0,0-5.39-.4,24,24,0,0,0-12,2.73c-3.19,1.82-4.93,5.26-5.19,10.33H462.53a24.31,24.31,0,0,1,2.66-10.79,20.25,20.25,0,0,1,6.39-7.13,26.92,26.92,0,0,1,9.13-3.93,48.06,48.06,0,0,1,11-1.19,65,65,0,0,1,9.26.66,24.19,24.19,0,0,1,8.32,2.72,16,16,0,0,1,6,5.79,18.45,18.45,0,0,1,2.26,9.7v35.35A26.28,26.28,0,0,0,518,118c.31,1.24,1.35,1.86,3.13,1.86a11.31,11.31,0,0,0,3.46-.66ZM506.21,92.7A14.16,14.16,0,0,1,500.62,95q-3.47.73-7.26,1.19c-2.53.32-5.09.67-7.66,1.07a28.39,28.39,0,0,0-6.92,1.93,12.54,12.54,0,0,0-5,3.8,10.59,10.59,0,0,0-1.93,6.72,9.25,9.25,0,0,0,1.13,4.73,9.46,9.46,0,0,0,2.93,3.13,12.19,12.19,0,0,0,4.2,1.73,23,23,0,0,0,5.06.53,26.65,26.65,0,0,0,9.59-1.53,20,20,0,0,0,6.52-3.86,15.17,15.17,0,0,0,3.73-5.06,12.79,12.79,0,0,0,1.2-5.13Z"/><path d="M546.83,33.3V68.86h.27a16.91,16.91,0,0,1,8.79-8.33,32.8,32.8,0,0,1,13.18-2.59A31.1,31.1,0,0,1,583,60.86a28.39,28.39,0,0,1,9.85,7.93,35,35,0,0,1,5.93,11.52,47.14,47.14,0,0,1,2,13.85A48.85,48.85,0,0,1,598.84,108,32.82,32.82,0,0,1,593,119.4a27.73,27.73,0,0,1-9.86,7.66,32,32,0,0,1-13.78,2.79,34.47,34.47,0,0,1-5.66-.53,31.17,31.17,0,0,1-6.2-1.73,24.45,24.45,0,0,1-5.79-3.26,18.27,18.27,0,0,1-4.59-5.13h-.27v9.19H535.51V33.3ZM587.52,84a25.37,25.37,0,0,0-3.87-8.19A19,19,0,0,0,577,70.05a20.32,20.32,0,0,0-9.52-2.13,18.74,18.74,0,0,0-16.25,8.19,25.11,25.11,0,0,0-3.66,8.33,40.18,40.18,0,0,0-1.13,9.45,39.6,39.6,0,0,0,1.2,9.79,24.24,24.24,0,0,0,3.79,8.33,19.62,19.62,0,0,0,6.73,5.79,21.06,21.06,0,0,0,10,2.2,19.37,19.37,0,0,0,9.79-2.27,18,18,0,0,0,6.32-6,26.24,26.24,0,0,0,3.47-8.52,45.34,45.34,0,0,0,1.06-9.86A35.37,35.37,0,0,0,587.52,84Z"/><path d="M626.07,33.3v95.09H614.75V33.3Z"/><path class="cls-1" d="M69.4,76.83v0L14.88,108.46a1.49,1.49,0,0,1-2.24-1.29V48.32a6.32,6.32,0,0,1,3.14-5.46L69,11.79A6.31,6.31,0,0,0,72.1,6.33h0A6.32,6.32,0,0,0,62.59.87L3.13,35.6A6.31,6.31,0,0,0,0,41.06v79.61a6.33,6.33,0,0,0,9.49,5.48l57.7-33.41A1.47,1.47,0,0,1,69.4,94v66.13a6.32,6.32,0,0,0,9.48,5.48l69.4-40a6.32,6.32,0,0,0,3.16-5.47V40.22A6.32,6.32,0,0,0,142,34.75Zm69.4-23.07v59a6.33,6.33,0,0,1-3.17,5.48L84.27,147.91A1.49,1.49,0,0,1,82,146.62V87.79a6.32,6.32,0,0,1,3.15-5.47l51.38-29.83A1.48,1.48,0,0,1,138.8,53.76Z"/></g></g></svg>