<?xml version="1.0" encoding="utf-8"?>
<!-- Generator: Adobe Illustrator 16.0.0, SVG Export Plug-In . SVG Version: 6.00 Build 0)  -->
<!DOCTYPE svg PUBLIC "-//W3C//DTD SVG 1.1//EN" "http://www.w3.org/Graphics/SVG/1.1/DTD/svg11.dtd">
<svg version="1.1" id="Layer_1" xmlns="http://www.w3.org/2000/svg" xmlns:xlink="http://www.w3.org/1999/xlink" x="0px" y="0px"
	 width="3000px" height="3000px" viewBox="0 0 3000 3000" enable-background="new 0 0 3000 3000" xml:space="preserve">
<g>
	<path fill="#EB4A60" d="M255.578,1265.016h280.869c-0.17,3.715-1.454,7.293-3.684,10.27c-9.509,16.306-18.065,33.278-27.407,49.584
		c-13.217,23.414-25.577,47.256-39.007,70.574c-8.51,16.782-18.113,33.041-27.193,49.537c-54.577,0-109.153,0-163.73,0
		c-2.853,0-5.681,0.143-8.534,0.31c-2.377,6.275-6.323,11.766-9.508,17.661c-4.16,6.751-7.535,13.953-11.647,20.704
		c-4.35,9.08-10.364,17.208-14.738,26.265c-9.033,15.332-17.471,30.901-26.313,46.399c-9.223,15.848-18.24,31.916-27.051,48.207
		c-3.729,5.773-7.164,11.731-10.292,17.851c-18.47,32.138-36.345,64.561-54.838,96.674c-1.569,3.452-3.635,6.656-6.133,9.509
		c-31.614-0.214-63.229,0-94.844,0c-3.894,0.074-7.764,0.616-11.528,1.616c0-8.748,5.848-15.76,9.793-23.104
		c4.754-9.865,11.101-19.017,15.878-28.905c37.89-67.793,75.375-135.823,113.146-203.664c8.558-14.737,15.902-29.784,24.507-44.236
		c10.744-19.016,20.751-38.46,31.947-57.263c3.565-7.867,8.367-15.07,12.289-22.748c13.929-24.792,27.597-49.728,41.479-74.52
		C250.688,1271.865,252.89,1268.253,255.578,1265.016L255.578,1265.016z"/>
	<g>
		<path fill="#595FB5" d="M581.041,1364.828c18.707-32.684,36.772-65.725,55.741-98.267h101.451
			c1.479,0.075,2.944,0.307,4.374,0.689c-3.375,5.111-6.204,10.53-9.176,15.855c-24.467,43.911-48.863,87.847-73.188,131.806
			c-10.221,17.899-19.729,36.202-30.093,54.006l-1.022,0.357l-0.19,2.234c-47.698,85.572-95.239,171.208-142.621,256.909
			c-93.132,0.095-186.271,0.095-279.42,0c5.301-11.077,11.576-21.655,17.471-32.423c26.528-48.776,53.745-97.126,79.892-145.902
			c57.223-0.095,114.446-0.095,171.669,0c35.347-61.564,69.933-123.605,105.017-185.265H581.041z"/>
		<path fill="#595FB5" d="M1628.051,1265.301v468.75h81.223v-329.622l148.16,217.093l146.972-222.251v334.78h83.601v-468.75h-89.924
			l-140.054,216.381l-141.624-216.381H1628.051z"/>
		<path fill="#595FB5" d="M1248.13,1386.198h53.079v351.799h-53.079V1386.198z"/>
		<path fill="#595FB5" d="M1243.566,1255.865h62.207v59.021h-62.207V1255.865z"/>
		<path fill="#595FB5" d="M1402.637,1285.387h55.456v100.811h109.344v49.133h-109.344v208.988
			c-0.095,8.053,1.773,16.008,5.443,23.176c9.39,17.828,34.896,38.983,103.9,14.263v45.544c0,0-62.991,35.655-120.04,3.185
			c0,0-28.334-12.027-40.243-52.627c-3.093-10.876-4.614-22.139-4.517-33.445v-209.867l-46.756,0.784v-49.133h47.137
			L1402.637,1285.387z"/>
		<path fill="#595FB5" d="M2173.578,1265.301v471.912h352.585v-76.065h-266.607v-125.198h234.922v-74.875h-235.326v-119.231h264.255
			v-76.541H2173.578z"/>
		<path fill="#595FB5" d="M2559.252,1265.301h100.429l115.286,165.68l114.383-165.68h100.43l-164.016,230.145L3000,1736.809
			h-105.777l-118.852-176.28l-124.604,176.685h-100.43l171.74-239.675L2559.252,1265.301z"/>
		<path fill="#595FB5" d="M1085.684,1492.379c0,0,77.658-29.309,72.904-113.693c0,0-0.643-81.152-92.016-106.206
			c-15.191-4.07-30.861-6.085-46.59-5.99H800.845l0.595,468.75h235.92c0,0,138.058-2.971,147.779-125.982
			C1185.139,1609.257,1195.027,1523.28,1085.684,1492.379L1085.684,1492.379z M857.489,1314.886h139.864
			c109.724-0.38,106.563,76.873,106.563,76.873c1.64,88.141-99.051,86.357-99.051,86.357H857.489V1314.886z M1028.635,1685.702
			H857.489v-163.206h163.635c109.724-0.404,106.562,76.849,106.562,76.849C1129.326,1687.485,1028.635,1685.702,1028.635,1685.702z"
			/>
	</g>
</g>
</svg>
